<svg width="334" height="85" viewBox="0 0 334 85" fill="none" xmlns="http://www.w3.org/2000/svg">
<path d="M6.3629 23.561L0.0839844 0.414034H4.20276L9.02707 18.1921L14.1974 0.412491L18.0368 0.414034L23.2253 18.2866L28.0713 0.418406L32.19 0.412491L25.9084 23.5569L21.1343 23.552L16.1187 6.26618L11.0984 23.5565L6.3629 23.561Z" fill="white"/>
<path d="M35.0303 0.426559H38.9509V23.5465H35.0303V0.426559Z" fill="white"/>
<path d="M47.3337 19.9199H56.8786V23.5465H43.4941V0.426559H47.3337V19.9199Z" fill="white"/>
<path d="M68.9382 0.453216C72.1559 0.453216 74.8328 1.57325 76.9419 3.78656C79.078 5.99987 80.1596 8.74659 80.1596 11.9999C80.1596 15.2266 79.078 17.9732 76.9419 20.2132C74.8328 22.4266 72.1559 23.5465 68.9382 23.5465H59.7178V0.426559H68.9382V0.453216ZM68.9382 19.9465C71.1554 19.9465 72.9671 19.1999 74.319 17.7066C75.7251 16.2132 76.4281 14.2932 76.4281 12.0265C76.4281 9.70659 75.7251 7.8399 74.319 6.34659C72.9401 4.85319 71.1284 4.10653 68.9382 4.10653H63.5844V19.9465H68.9382Z" fill="white"/>
<path d="M100.845 16.9418C100.845 18.8361 100.169 20.4102 98.79 21.6642C97.4108 22.9182 95.7883 23.5585 93.7877 23.5585H83.7559V0.426559H93.0574C94.9774 0.426559 96.5991 1.06693 97.9243 2.26753C99.2768 3.49479 99.9257 5.01562 99.9257 6.82985C99.9257 8.85759 99.114 10.4051 97.5463 11.5524C99.6008 12.6196 100.845 14.5405 100.845 16.9418ZM87.6223 4.00179V10.0849H93.084C94.788 10.0849 96.0857 8.75087 96.0857 7.04336C96.0857 5.33576 94.788 4.00179 93.084 4.00179H87.6223ZM93.8143 19.9834C95.5988 19.9834 97.0054 18.5693 97.0054 16.755C97.0054 14.9407 95.5988 13.5267 93.8143 13.5267H87.6223V20.01H93.8143V19.9834Z" fill="white"/>
<path d="M108.334 19.93H118.718V23.5585H104.495V0.426559H118.556V4.0551H108.334V10.0582H117.717V13.6601H108.334V19.93Z" fill="white"/>
<path d="M135.537 23.5585L130.562 15.1275H126.019V23.5585H122.18V0.426559H131.562C133.671 0.426559 135.456 1.1469 136.889 2.61433C138.349 4.02845 139.107 5.78936 139.107 7.87042C139.107 10.8053 137.241 13.5 134.456 14.5672L139.782 23.5585H135.537ZM126.019 4.0017V11.739H131.535C133.59 11.739 135.213 10.0315 135.213 7.87042C135.213 5.73596 133.563 4.0017 131.535 4.0017H126.019Z" fill="white"/>
<path d="M156.059 23.558L151.111 15.1226H146.568V23.558H142.729V0.414062H152.111C154.22 0.414062 156.005 1.13483 157.438 2.60303C158.898 4.01783 159.655 5.7796 159.655 7.86178C159.655 10.7982 157.789 13.4943 155.005 14.5621L160.331 23.558H156.059ZM146.568 3.99109V11.7325H152.084C154.139 11.7325 155.761 10.024 155.761 7.86178C155.761 5.72629 154.112 3.99109 152.084 3.99109H146.568Z" fill="white"/>
<path d="M163.144 0.417191H166.984V23.5586H163.144V0.417191Z" fill="white"/>
<path d="M175.365 19.93H185.749V23.5584H171.525V0.426559H185.586V4.0551H175.365V10.0582H184.748V13.6601H175.365V19.93Z" fill="white"/>
<path d="M188.426 18.2933L191.751 16.3733C192.698 18.9867 194.618 20.2666 197.565 20.2666C200.485 20.2666 201.918 19.04 201.918 17.2267C201.918 16.2667 201.513 15.5733 200.756 15.0933C199.998 14.5867 198.592 14.0266 196.592 13.44C194.347 12.7733 193.239 12.3466 191.67 11.3333C190.156 10.2667 189.399 8.74663 189.399 6.66669C189.399 4.61331 190.129 3.01337 191.616 1.81337C193.077 0.586629 194.861 0 196.943 0C200.702 0 203.595 1.92 205.109 5.09331L201.864 6.93334C200.89 4.8 199.241 3.70663 196.943 3.70663C194.698 3.70663 193.265 4.82666 193.265 6.58663C193.265 8.29337 194.401 9.09334 197.998 10.1866C198.89 10.48 199.539 10.6934 199.944 10.8533C200.377 10.9867 200.944 11.2267 201.675 11.52C202.432 11.8133 203.027 12.16 203.379 12.4533C204.622 13.4133 205.947 14.9866 205.785 17.2C205.785 19.28 205.028 20.96 203.487 22.1866C201.972 23.4134 199.972 24 197.484 24C192.941 23.9733 189.642 21.84 188.426 18.2933Z" fill="white"/>
<path d="M239.394 19.0016C242.088 18.66 244.264 16.4837 244.608 13.7874C244.728 12.8671 244.635 11.9316 244.336 11.053C244.037 10.1743 243.541 9.37611 242.884 8.71988C242.228 8.06364 241.43 7.56693 240.551 7.26808C239.673 6.96923 238.737 6.87623 237.817 6.99624C235.121 7.33999 232.944 9.51634 232.603 12.2105C232.483 13.1307 232.576 14.0663 232.874 14.9449C233.173 15.8235 233.67 16.6217 234.326 17.278C234.982 17.9342 235.781 18.4309 236.659 18.7298C237.538 19.0286 238.473 19.1216 239.394 19.0016V19.0016ZM239.761 1.71113C242.355 1.98418 244.776 3.1394 246.621 4.98362C248.465 6.82785 249.62 9.24929 249.893 11.8431C250.604 19.0188 244.623 25 237.445 24.2889C234.852 24.0154 232.431 22.8599 230.587 21.0158C228.743 19.1716 227.588 16.7504 227.315 14.1569C226.604 6.9812 232.585 1 239.761 1.71113ZM255.982 2.16015H272.591C273.223 2.16015 273.579 2.88202 273.199 3.38475L261.707 18.5462H270.711C272.353 18.5462 273.644 20.0393 273.304 21.7409C273.055 22.9891 271.884 23.8399 270.612 23.8399H252.574C251.949 23.8399 251.595 23.1244 251.971 22.6281L263.471 7.45386H256.081C254.809 7.45386 253.638 6.60093 253.389 5.35485C253.047 3.6533 254.34 2.16015 255.982 2.16015V2.16015ZM328.063 2.2203C329.778 1.85937 331.286 3.15702 331.286 4.807V23.075C331.286 23.7131 330.549 24.0676 330.051 23.6723L315.723 12.305V21.1973C315.723 22.8473 314.215 24.1449 312.5 23.784C311.271 23.5262 310.429 22.3811 310.429 21.1264V2.92284C310.429 2.28476 311.166 1.93027 311.664 2.32558L325.994 13.6929V4.8779C325.994 3.62322 326.839 2.48026 328.065 2.2203H328.063ZM290.756 1.65312C299.528 1.65312 306.639 6.73199 306.639 12.9968C306.639 19.2616 299.528 24.3404 290.756 24.3404C281.984 24.3404 274.873 19.2616 274.873 12.9968C274.873 6.73199 281.984 1.65312 290.756 1.65312ZM290.756 6.94683C284.695 6.94683 280.166 10.1415 280.166 12.9968C280.166 15.852 284.695 19.0467 290.756 19.0467C296.817 19.0467 301.346 15.8542 301.346 12.9968C301.346 10.1394 296.817 6.94683 290.756 6.94683V6.94683Z" fill="white"/>
<path fill-rule="evenodd" clip-rule="evenodd" d="M32.6838 70.1411C30.0069 76.0752 24.0456 80.1901 17.0958 80.1901C11.2178 80.1901 5.98694 77.2198 2.90442 72.6872L8.82545 64.8453L7.67441 72.9452L13.9412 75.1193L21.5722 62.9269C21.2311 65.1863 20.6769 70.4299 25.6647 72.0499C28.1294 72.8 30.4973 71.9213 32.6838 70.1411ZM33.8798 59.8215C31.4242 63.527 29.0577 66.1473 27.7963 65.8258C25.6595 65.2811 27.5169 58.5598 28.755 54.0795C28.7767 54.0011 28.7982 53.9234 28.8194 53.8464V53.7185L21.8706 51.3312L13.5575 64.8879L14.7085 57.4701L8.69756 55.3811L0.292274 66.3818C0.0912143 65.3186 -0.00943655 64.2198 0.000696068 63.0951C0.000696068 53.631 7.63167 46 17.0958 46C25.4398 46 32.359 51.9316 33.8798 59.8215Z" fill="white"/>
<path d="M52.3946 75.6295H56.1461L61.3897 56.1471V75.6295H65.6102V49.8803H59.8124L54.5688 68.7659L49.3251 49.8803H43.3994V75.6295H47.0231V56.1471L52.3946 75.6295ZM83.2595 62.8828C83.2595 58.3213 81.0001 56.616 76.3106 56.616C73.3691 56.616 71.067 57.5113 69.7028 58.3213V61.9449C70.8538 61.0497 73.4543 60.1118 75.7564 60.1118C77.9306 60.1118 78.8259 60.9218 78.8259 62.8402V63.8633H78.1438C71.408 63.8633 68.3386 66.1228 68.3386 69.9169C68.3386 73.7111 70.5981 75.8426 74.0512 75.8426C76.6517 75.8426 77.8027 75.0327 78.6127 74.1374H78.8259C78.8259 74.6063 79.039 75.2884 79.1669 75.6295H83.5153C83.3874 74.1374 83.3021 72.56 83.3021 71.068C83.2595 71.068 83.2595 62.8828 83.2595 62.8828ZM78.8259 71.1959C78.2717 72.0058 77.2485 72.6879 75.6285 72.6879C73.7954 72.6879 72.9001 71.5369 72.9001 69.9596C72.9001 67.7854 74.3922 67.018 78.2716 67.018H78.9538V71.2385H78.8259V71.1959ZM90.8905 56.9571H86.7979V81.001H91.2315V73.4979C92.3826 75.2032 93.9599 76.0132 95.9209 76.0132C100.269 76.0132 103.211 72.6027 103.211 66.3359C103.211 60.0691 100.355 56.6587 96.1341 56.6587C94.0878 56.6587 92.3825 57.5539 91.1036 59.387C91.1462 59.3444 90.8905 56.9571 90.8905 56.9571ZM94.6846 72.56C92.4252 72.56 91.1462 70.6417 91.1462 66.4212C91.1462 62.0728 92.3825 60.1544 94.8978 60.1544C97.2851 60.1544 98.5214 62.0728 98.5214 66.2933C98.5214 70.6417 97.2851 72.56 94.6846 72.56ZM116.981 75.6295H122.011L114.934 65.6112L121.201 56.9571H116.768L110.501 65.6112V56.9571H106.067V75.6295H110.501V66.5064L116.981 75.6295ZM136.804 74.3932V70.7695C135.44 71.6648 133.181 72.4748 131.006 72.4748C127.809 72.4748 126.573 70.9827 126.317 67.7854H136.889V65.398C136.889 58.9181 134.033 56.5308 129.6 56.5308C124.228 56.5308 121.627 60.6233 121.627 66.3359C121.627 72.8158 124.825 76.0132 130.409 76.0132C133.522 75.9705 135.568 75.2884 136.804 74.3932ZM129.642 60.1544C131.816 60.1544 132.498 61.9875 132.498 64.247V64.588H126.317C126.445 61.6465 127.596 60.1544 129.642 60.1544ZM152.748 60.4955V56.9571H137.955V60.4955H143.199V75.6295H147.632V60.4955H152.748Z" fill="white"/>
<path d="M216.705 75.5682V51.0723H231.183V54.1434H219.703V61.675H230.013V64.7461H219.703V72.424H231.988V75.4951H216.705V75.5682Z" fill="white"/>
<path d="M247.197 75.5668L242.225 69.0589L237.252 75.5668H233.743L240.543 66.8652L233.377 57.8712H237.326L242.225 64.5985L247.197 57.8712H251.073L244.272 66.8652L250.707 75.5668H247.197Z" fill="white"/>
<path d="M255.533 72.9355V85.0007H252.535V66.9395C252.535 62.3328 256.045 57.4336 261.529 57.4336C267.086 57.4336 271.254 60.9435 271.254 66.7201C271.254 72.3506 267.013 76.226 262.187 76.226C259.847 76.226 256.703 75.2023 255.533 72.9355V72.9355ZM268.11 66.7201C268.11 62.7715 265.551 60.4316 261.017 60.651C258.824 60.7241 255.46 62.3328 255.753 67.9632C255.826 69.7913 257.727 73.228 261.895 73.228C265.478 73.228 268.11 71.1806 268.11 66.7201V66.7201Z" fill="white"/>
<path d="M273.813 75.5671V57.8715H276.811V59.7727C278.274 58.0908 280.541 57.5059 282.954 57.5059V60.7233C282.588 60.6501 279.005 60.2114 276.811 64.8912V75.6402H273.813V75.5671Z" fill="white"/>
<path d="M283.759 66.7201C283.759 61.6016 287.415 57.4336 292.46 57.4336C298.749 57.4336 301.089 61.6016 301.089 66.9395V68.402H287.049C287.269 71.7656 290.267 73.5205 293.045 73.4474C295.093 73.3743 296.482 72.7893 297.945 71.3268L299.919 73.3743C298.091 75.1292 295.751 76.2991 292.899 76.2991C287.561 76.226 283.759 72.2774 283.759 66.7201V66.7201ZM292.241 60.4316C289.389 60.4316 287.196 62.9178 287.049 65.6233H297.945C297.945 62.9909 296.043 60.4316 292.241 60.4316V60.4316Z" fill="white"/>
<path d="M302.624 73.0837L304.818 71.1094C304.745 71.1094 305.915 72.2794 306.061 72.3525C306.573 72.7912 307.084 73.0837 307.743 73.23C309.644 73.7418 313.081 73.5956 313.373 70.9632C313.519 69.5007 312.422 68.6964 311.179 68.1845C309.571 67.5995 307.816 67.3802 306.207 66.649C304.379 65.8446 303.209 64.4553 303.209 62.4079C303.209 57.0699 310.814 56.1925 314.25 58.6786C314.397 58.8249 316.079 60.3604 316.005 60.3604L313.812 62.1154C312.715 60.7992 311.691 60.1411 309.351 60.1411C308.181 60.1411 306.573 60.6529 306.28 61.896C305.841 63.6509 307.816 64.309 309.132 64.6746C310.887 65.1134 312.788 65.4059 314.324 66.3565C316.444 67.6727 316.956 70.5244 316.152 72.7181C315.274 75.1311 312.642 76.0817 310.302 76.1548C307.523 76.3011 305.11 75.4236 303.136 73.4493C302.99 73.4493 302.624 73.0837 302.624 73.0837V73.0837Z" fill="white"/>
<path d="M318.053 73.0837L320.246 71.1094C320.173 71.1094 321.343 72.2794 321.489 72.3525C322.001 72.7912 322.513 73.0837 323.171 73.23C325.072 73.7418 328.509 73.5956 328.802 70.9632C328.948 69.5007 327.851 68.6964 326.608 68.1845C324.999 67.5995 323.244 67.3802 321.636 66.649C319.808 65.8446 318.638 64.4553 318.638 62.4079C318.638 57.0699 326.242 56.1925 329.679 58.6786C329.825 58.8249 331.507 60.3604 331.434 60.3604L329.24 62.1154C328.144 60.7992 327.12 60.1411 324.78 60.1411C323.61 60.1411 322.001 60.6529 321.709 61.896C321.27 63.6509 323.244 64.309 324.561 64.6746C326.316 65.1134 328.217 65.4059 329.752 66.3565C331.873 67.6727 332.385 70.5244 331.58 72.7181C330.703 75.1311 328.07 76.0817 325.731 76.1548C322.952 76.3011 320.539 75.4236 318.565 73.4493C318.418 73.4493 318.053 73.0837 318.053 73.0837V73.0837Z" fill="white"/>
<path d="M196.377 75.5672L194.184 69.7175H182.338L180.144 75.5672H177L186.506 51.0713H189.943L199.375 75.5672H196.377ZM188.115 54.5812L183.654 66.7194H192.941L188.115 54.5812Z" fill="white"/>
<path d="M201.35 75.5672V51.0713H204.421V75.5672H201.35Z" fill="white"/>
<path d="M209.027 75.5676V58.2376H212.098V75.5676H209.027Z" fill="white"/>
<path d="M215.023 52.6067V52.3142C212.683 52.2411 210.782 50.3399 210.709 48H210.27C210.197 50.3399 208.296 52.2411 205.956 52.3142V52.6067C208.296 52.6798 210.197 54.581 210.27 56.9209H210.709C210.782 54.581 212.683 52.6798 215.023 52.6067Z" fill="white"/>
</svg>
